<?xml version="1.0" encoding="iso-8859-1"?>
<!-- Generator: Adobe Illustrator 16.0.0, SVG Export Plug-In . SVG Version: 6.00 Build 0)  -->
<!DOCTYPE svg PUBLIC "-//W3C//DTD SVG 1.1//EN" "http://www.w3.org/Graphics/SVG/1.1/DTD/svg11.dtd" [
	<!ENTITY ns_flows "http://ns.adobe.com/Flows/1.0/">
	<!ENTITY ns_extend "http://ns.adobe.com/Extensibility/1.0/">
	<!ENTITY ns_ai "http://ns.adobe.com/AdobeIllustrator/10.0/">
	<!ENTITY ns_graphs "http://ns.adobe.com/Graphs/1.0/">
	<!ENTITY ns_vars "http://ns.adobe.com/Variables/1.0/">
	<!ENTITY ns_imrep "http://ns.adobe.com/ImageReplacement/1.0/">
	<!ENTITY ns_sfw "http://ns.adobe.com/SaveForWeb/1.0/">
	<!ENTITY ns_custom "http://ns.adobe.com/GenericCustomNamespace/1.0/">
	<!ENTITY ns_adobe_xpath "http://ns.adobe.com/XPath/1.0/">
]>
<svg version="1.1" id="Layer_1" xmlns:x="&ns_extend;" xmlns:i="&ns_ai;" xmlns:graph="&ns_graphs;"
	 xmlns="http://www.w3.org/2000/svg" xmlns:xlink="http://www.w3.org/1999/xlink" xmlns:a="http://ns.adobe.com/AdobeSVGViewerExtensions/3.0/"
	 x="0px" y="0px" width="195px" height="40px" viewBox="0 0 195 40" style="enable-background:new 0 0 195 40;"
	 xml:space="preserve">
<metadata>
	<sfw  xmlns="&ns_sfw;">
		<slices></slices>
		<sliceSourceBounds  width="181.999" height="33.021" x="5.779" y="-36.965" bottomLeftOrigin="true"></sliceSourceBounds>
	</sfw>
</metadata>
<path style="fill:#E18026;" d="M5.79,19.052c0.466-7.813,7.294-14.64,15.105-15.106c0.935-0.002,1.866-0.002,2.801,0
	c7.812,0.467,14.638,7.294,15.105,15.106c-0.004,1.033,0.011,2.069-0.008,3.107c-0.615,6.852-5.984,12.948-12.705,14.428
	c-1.582,0.511-3.25,0.348-4.881,0.371c-2.168,0.039-4.207-0.816-6.212-1.539c-1.257-0.015-2.364,0.902-3.645,0.907
	c-1.365,0.036-2.735,0.015-4.101-0.039c0.429-0.796,1.357-1.147,1.831-1.919c0.534-0.824,1.422-1.788,0.959-2.828
	c-1.912-2.038-3.281-4.564-3.881-7.297C5.617,22.563,5.827,20.784,5.79,19.052 M26.53,9.572c0.015,6.534,0.015,13.063,0,19.6
	c1.527,0.003,3.052-0.007,4.582,0.013c0.087-6.538,0.084-13.086,0-19.627C29.585,9.577,28.057,9.568,26.53,9.572 M19.739,12.574
	c0.027,5.533,0.018,11.064,0.005,16.598c1.528,0.003,3.057-0.007,4.584,0.013c0.098-5.546,0.051-11.098,0.024-16.646
	C22.814,12.516,21.274,12.479,19.739,12.574 M13.263,15.351c0.024,4.634,0.027,9.267,0,13.897c1.536,0.104,3.074,0.062,4.612,0.038
	c0.044-4.656,0.044-9.314,0-13.971C16.337,15.291,14.799,15.255,13.263,15.351"/>
<path style="fill:#095877;" d="M42.549,14.044c0.94-0.188,2.842-0.329,4.627-0.329c2.183,0,3.522,0.212,4.672,0.893
	c1.104,0.587,1.903,1.668,1.903,3.1c0,1.409-0.822,2.725-2.607,3.382v0.047c1.808,0.493,3.147,1.855,3.147,3.898
	c0,1.433-0.658,2.56-1.644,3.358c-1.151,0.916-3.076,1.433-6.223,1.433c-1.761,0-3.077-0.118-3.875-0.235V14.044z M46.095,20.103
	h1.174c1.879,0,2.889-0.774,2.889-1.949c0-1.197-0.916-1.831-2.537-1.831c-0.775,0-1.22,0.047-1.526,0.094V20.103z M46.095,27.124
	c0.353,0.047,0.775,0.047,1.386,0.047c1.62,0,3.052-0.61,3.052-2.277c0-1.597-1.432-2.231-3.217-2.231h-1.221V27.124z"/>
<path style="fill:#095877;" d="M60.071,13.833v9.111c0,2.724,1.034,4.109,2.865,4.109c1.879,0,2.912-1.315,2.912-4.109v-9.111h3.57
	v8.876c0,4.885-2.466,7.21-6.599,7.21c-3.993,0-6.341-2.208-6.341-7.257v-8.829H60.071z"/>
<polygon style="fill:#095877;" points="71.276,27.734 78.814,16.886 78.814,16.792 71.981,16.792 71.981,13.833 83.464,13.833 
	83.464,15.899 76.09,26.607 76.09,26.701 83.582,26.701 83.582,29.66 71.276,29.66 "/>
<polygon style="fill:#095877;" points="84.595,27.734 92.133,16.886 92.133,16.792 85.3,16.792 85.3,13.833 96.782,13.833 
	96.782,15.899 89.409,26.607 89.409,26.701 96.899,26.701 96.899,29.66 84.595,29.66 "/>
<path style="fill:#E08026;" d="M112.309,23.602c-0.071-1.902-0.142-4.203-0.142-6.505h-0.07c-0.493,2.02-1.15,4.274-1.761,6.129
	l-1.926,6.177h-2.795l-1.69-6.13c-0.517-1.854-1.057-4.109-1.433-6.176h-0.047c-0.094,2.137-0.164,4.579-0.283,6.552l-0.28,6.012
	H98.57l1.01-15.828h4.768l1.55,5.284c0.493,1.832,0.986,3.805,1.338,5.659h0.071c0.445-1.831,0.986-3.921,1.503-5.683l1.69-5.261
	h4.673l0.869,15.828h-3.499L112.309,23.602z"/>
<polygon style="fill:#E08026;" points="127.977,22.968 122.153,22.968 122.153,26.725 128.657,26.725 128.657,29.66 118.56,29.66 
	118.56,13.833 128.33,13.833 128.33,16.769 122.153,16.769 122.153,20.056 127.977,20.056 "/>
<polygon style="fill:#E08026;" points="134.038,16.839 129.787,16.839 129.787,13.833 141.952,13.833 141.952,16.839 
	137.631,16.839 137.631,29.66 134.038,29.66 "/>
<path style="fill:#E08026;" d="M143.622,14.044c1.151-0.188,2.865-0.329,4.768-0.329c2.349,0,3.992,0.353,5.119,1.245
	c0.939,0.751,1.456,1.855,1.456,3.312c0,2.02-1.433,3.404-2.795,3.897v0.07c1.104,0.446,1.715,1.503,2.114,2.959
	c0.493,1.785,0.987,3.852,1.291,4.462h-3.663c-0.259-0.446-0.634-1.737-1.104-3.687c-0.423-1.973-1.104-2.513-2.56-2.536h-1.081
	v6.223h-3.546V14.044z M147.168,20.854h1.409c1.785,0,2.842-0.893,2.842-2.278c0-1.456-0.986-2.184-2.63-2.207
	c-0.869,0-1.362,0.07-1.621,0.117V20.854z"/>
<rect x="157.316" y="13.833" style="fill:#E08026;" width="3.593" height="15.827"/>
<path style="fill:#E08026;" d="M175.399,29.214c-0.657,0.329-2.137,0.682-4.063,0.682c-5.472,0-8.29-3.405-8.29-7.914
	c0-5.401,3.852-8.407,8.643-8.407c1.854,0,3.264,0.376,3.896,0.704l-0.727,2.842c-0.728-0.305-1.738-0.587-3.006-0.587
	c-2.842,0-5.049,1.714-5.049,5.236c0,3.171,1.879,5.167,5.072,5.167c1.08,0,2.278-0.235,2.982-0.517L175.399,29.214z"/>
<path style="fill:#E08026;" d="M177.634,25.974c0.963,0.493,2.442,0.986,3.969,0.986c1.644,0,2.513-0.682,2.513-1.716
	c0-0.985-0.751-1.549-2.653-2.229c-2.631-0.916-4.345-2.372-4.345-4.673c0-2.701,2.255-4.768,5.988-4.768
	c1.785,0,3.1,0.376,4.039,0.799l-0.799,2.888c-0.634-0.305-1.761-0.751-3.311-0.751s-2.302,0.704-2.302,1.526
	c0,1.01,0.893,1.456,2.936,2.23c2.795,1.034,4.109,2.489,4.109,4.721c0,2.653-2.043,4.908-6.387,4.908
	c-1.809,0-3.594-0.47-4.485-0.963L177.634,25.974z"/>
</svg>
